<mxfile host="app.diagrams.net" agent="Mozilla/5.0 (Macintosh; Intel Mac OS X 10_15_7) AppleWebKit/605.1.15 (KHTML, like Gecko) Version/18.2 Safari/605.1.15" version="26.0.10">
  <diagram name="Page-1" id="yJ1JHOEbkFGyUQX62pq3">
    <mxGraphModel dx="1434" dy="827" grid="1" gridSize="10" guides="1" tooltips="1" connect="1" arrows="1" fold="1" page="1" pageScale="1" pageWidth="850" pageHeight="1100" math="0" shadow="0">
      <root>
        <mxCell id="0" />
        <mxCell id="1" parent="0" />
        <mxCell id="_accsSYRUymLjPcQeyw_-2" value="" style="image;aspect=fixed;html=1;points=[];align=center;fontSize=12;image=img/lib/azure2/networking/Virtual_Networks.svg;" vertex="1" parent="1">
          <mxGeometry x="300" y="243.13" width="78.5" height="46.87" as="geometry" />
        </mxCell>
        <mxCell id="_accsSYRUymLjPcQeyw_-4" value="" style="rounded=0;whiteSpace=wrap;html=1;" vertex="1" parent="1">
          <mxGeometry x="34.25" y="310" width="610" height="310" as="geometry" />
        </mxCell>
        <mxCell id="_accsSYRUymLjPcQeyw_-5" value="" style="rounded=0;whiteSpace=wrap;html=1;" vertex="1" parent="1">
          <mxGeometry x="830" y="310" width="610" height="310" as="geometry" />
        </mxCell>
        <mxCell id="_accsSYRUymLjPcQeyw_-6" value="" style="outlineConnect=0;dashed=0;verticalLabelPosition=bottom;verticalAlign=top;align=center;html=1;shape=mxgraph.aws3.vpc;fillColor=#F58536;gradientColor=none;" vertex="1" parent="1">
          <mxGeometry x="1130" y="220" width="67.5" height="81" as="geometry" />
        </mxCell>
        <mxCell id="_accsSYRUymLjPcQeyw_-7" value="Amazon S3" style="sketch=0;outlineConnect=0;fontColor=#232F3E;gradientColor=none;strokeColor=#ffffff;fillColor=#232F3E;dashed=0;verticalLabelPosition=middle;verticalAlign=bottom;align=center;html=1;whiteSpace=wrap;fontSize=10;fontStyle=1;spacing=3;shape=mxgraph.aws4.productIcon;prIcon=mxgraph.aws4.s3;" vertex="1" parent="1">
          <mxGeometry x="1300" y="350" width="92.5" height="110" as="geometry" />
        </mxCell>
        <mxCell id="_accsSYRUymLjPcQeyw_-8" value="AWS Lambda" style="sketch=0;outlineConnect=0;fontColor=#232F3E;gradientColor=none;strokeColor=#ffffff;fillColor=#232F3E;dashed=0;verticalLabelPosition=middle;verticalAlign=bottom;align=center;html=1;whiteSpace=wrap;fontSize=10;fontStyle=1;spacing=3;shape=mxgraph.aws4.productIcon;prIcon=mxgraph.aws4.lambda;" vertex="1" parent="1">
          <mxGeometry x="1107.5" y="350" width="90" height="110" as="geometry" />
        </mxCell>
        <mxCell id="_accsSYRUymLjPcQeyw_-9" value="Amazon SNS" style="sketch=0;outlineConnect=0;fontColor=#232F3E;gradientColor=none;strokeColor=#ffffff;fillColor=#232F3E;dashed=0;verticalLabelPosition=middle;verticalAlign=bottom;align=center;html=1;whiteSpace=wrap;fontSize=10;fontStyle=1;spacing=3;shape=mxgraph.aws4.productIcon;prIcon=mxgraph.aws4.sns;" vertex="1" parent="1">
          <mxGeometry x="900" y="350" width="90" height="110" as="geometry" />
        </mxCell>
        <mxCell id="_accsSYRUymLjPcQeyw_-10" value="" style="image;aspect=fixed;html=1;points=[];align=center;fontSize=12;image=img/lib/azure2/iot/Function_Apps.svg;" vertex="1" parent="1">
          <mxGeometry x="460" y="371" width="68" height="60" as="geometry" />
        </mxCell>
        <mxCell id="_accsSYRUymLjPcQeyw_-23" value="" style="edgeStyle=orthogonalEdgeStyle;rounded=0;orthogonalLoop=1;jettySize=auto;html=1;exitX=-0.021;exitY=0.6;exitDx=0;exitDy=0;exitPerimeter=0;" edge="1" parent="1" source="_accsSYRUymLjPcQeyw_-11" target="_accsSYRUymLjPcQeyw_-12">
          <mxGeometry relative="1" as="geometry" />
        </mxCell>
        <mxCell id="_accsSYRUymLjPcQeyw_-11" value="" style="verticalLabelPosition=bottom;html=1;verticalAlign=top;align=center;strokeColor=none;fillColor=#00BEF2;shape=mxgraph.azure.sql_database;" vertex="1" parent="1">
          <mxGeometry x="296.4" y="355" width="67.5" height="80" as="geometry" />
        </mxCell>
        <mxCell id="_accsSYRUymLjPcQeyw_-12" value="" style="image;aspect=fixed;html=1;points=[];align=center;fontSize=12;image=img/lib/azure2/app_services/App_Services.svg;" vertex="1" parent="1">
          <mxGeometry x="120" y="371" width="64" height="64" as="geometry" />
        </mxCell>
        <mxCell id="_accsSYRUymLjPcQeyw_-14" value="" style="points=[];aspect=fixed;html=1;align=center;shadow=0;dashed=0;fillColor=#FF6A00;strokeColor=none;shape=mxgraph.alibaba_cloud.prometheus;" vertex="1" parent="1">
          <mxGeometry x="315" y="750" width="48.9" height="48.9" as="geometry" />
        </mxCell>
        <mxCell id="_accsSYRUymLjPcQeyw_-15" value="" style="image;aspect=fixed;html=1;points=[];align=center;fontSize=12;image=img/lib/azure2/other/Grafana.svg;" vertex="1" parent="1">
          <mxGeometry x="540" y="750" width="68" height="52.800000000000004" as="geometry" />
        </mxCell>
        <mxCell id="_accsSYRUymLjPcQeyw_-16" value="AWS Elastic Beanstalk" style="sketch=0;outlineConnect=0;fontColor=#232F3E;gradientColor=none;strokeColor=#ffffff;fillColor=#232F3E;dashed=0;verticalLabelPosition=middle;verticalAlign=bottom;align=center;html=1;whiteSpace=wrap;fontSize=10;fontStyle=1;spacing=3;shape=mxgraph.aws4.productIcon;prIcon=mxgraph.aws4.elastic_beanstalk;" vertex="1" parent="1">
          <mxGeometry x="1306" y="490" width="80" height="110" as="geometry" />
        </mxCell>
        <mxCell id="_accsSYRUymLjPcQeyw_-17" value="" style="aspect=fixed;sketch=0;html=1;dashed=0;whitespace=wrap;verticalLabelPosition=bottom;verticalAlign=top;fillColor=#2875E2;strokeColor=#ffffff;points=[[0.005,0.63,0],[0.1,0.2,0],[0.9,0.2,0],[0.5,0,0],[0.995,0.63,0],[0.72,0.99,0],[0.5,1,0],[0.28,0.99,0]];shape=mxgraph.kubernetes.icon2;kubernetesLabel=1;prIcon=user" vertex="1" parent="1">
          <mxGeometry x="1300" y="754.04" width="101" height="96.96" as="geometry" />
        </mxCell>
        <mxCell id="_accsSYRUymLjPcQeyw_-18" value="" style="endArrow=classic;html=1;rounded=0;entryX=1.044;entryY=0.583;entryDx=0;entryDy=0;entryPerimeter=0;" edge="1" parent="1" source="_accsSYRUymLjPcQeyw_-9" target="_accsSYRUymLjPcQeyw_-10">
          <mxGeometry width="50" height="50" relative="1" as="geometry">
            <mxPoint x="710" y="630" as="sourcePoint" />
            <mxPoint x="760" y="580" as="targetPoint" />
          </mxGeometry>
        </mxCell>
        <mxCell id="_accsSYRUymLjPcQeyw_-19" value="" style="endArrow=classic;html=1;rounded=0;" edge="1" parent="1" source="_accsSYRUymLjPcQeyw_-8" target="_accsSYRUymLjPcQeyw_-9">
          <mxGeometry width="50" height="50" relative="1" as="geometry">
            <mxPoint x="710" y="630" as="sourcePoint" />
            <mxPoint x="760" y="580" as="targetPoint" />
          </mxGeometry>
        </mxCell>
        <mxCell id="_accsSYRUymLjPcQeyw_-20" value="" style="endArrow=classic;html=1;rounded=0;" edge="1" parent="1" source="_accsSYRUymLjPcQeyw_-7" target="_accsSYRUymLjPcQeyw_-8">
          <mxGeometry width="50" height="50" relative="1" as="geometry">
            <mxPoint x="1276" y="480" as="sourcePoint" />
            <mxPoint x="1160" y="480" as="targetPoint" />
          </mxGeometry>
        </mxCell>
        <mxCell id="_accsSYRUymLjPcQeyw_-21" value="" style="endArrow=classic;html=1;rounded=0;" edge="1" parent="1" source="_accsSYRUymLjPcQeyw_-16" target="_accsSYRUymLjPcQeyw_-7">
          <mxGeometry width="50" height="50" relative="1" as="geometry">
            <mxPoint x="1310" y="415" as="sourcePoint" />
            <mxPoint x="1208" y="415" as="targetPoint" />
          </mxGeometry>
        </mxCell>
        <mxCell id="_accsSYRUymLjPcQeyw_-22" value="" style="endArrow=classic;html=1;rounded=0;exitX=0.044;exitY=0.55;exitDx=0;exitDy=0;exitPerimeter=0;" edge="1" parent="1" source="_accsSYRUymLjPcQeyw_-10">
          <mxGeometry width="50" height="50" relative="1" as="geometry">
            <mxPoint x="465.9" y="490" as="sourcePoint" />
            <mxPoint x="370" y="404" as="targetPoint" />
          </mxGeometry>
        </mxCell>
        <mxCell id="_accsSYRUymLjPcQeyw_-24" value="" style="endArrow=classic;html=1;rounded=0;exitX=0.436;exitY=0.031;exitDx=0;exitDy=0;exitPerimeter=0;" edge="1" parent="1" source="_accsSYRUymLjPcQeyw_-17" target="_accsSYRUymLjPcQeyw_-16">
          <mxGeometry width="50" height="50" relative="1" as="geometry">
            <mxPoint x="1330" y="435" as="sourcePoint" />
            <mxPoint x="1228" y="435" as="targetPoint" />
          </mxGeometry>
        </mxCell>
        <mxCell id="_accsSYRUymLjPcQeyw_-25" value="Uploads Data" style="text;html=1;align=center;verticalAlign=middle;whiteSpace=wrap;rounded=0;" vertex="1" parent="1">
          <mxGeometry x="1350" y="690" width="60" height="30" as="geometry" />
        </mxCell>
      </root>
    </mxGraphModel>
  </diagram>
</mxfile>
